<?xml version="1.0" encoding="utf-8"?>
<!-- Generator: Adobe Illustrator 17.0.0, SVG Export Plug-In . SVG Version: 6.00 Build 0)  -->
<!DOCTYPE svg PUBLIC "-//W3C//DTD SVG 1.1//EN" "http://www.w3.org/Graphics/SVG/1.1/DTD/svg11.dtd">
<svg version="1.1" id="Layer_1" xmlns="http://www.w3.org/2000/svg" xmlns:xlink="http://www.w3.org/1999/xlink" x="0px" y="0px"
	 width="829px" height="829px" viewBox="0 0 829 829" enable-background="new 0 0 829 829" xml:space="preserve">
<filter  width="140%" height="130%" id="AI_Shadow_2" filterUnits="objectBoundingBox" x="-15%" y="-15%">
	<feGaussianBlur  in="SourceAlpha" result="blur" stdDeviation="6"></feGaussianBlur>
	<feOffset  in="blur" result="offsetBlurredAlpha" dx="8" dy="8"></feOffset>
	<feMerge>
		<feMergeNode  in="offsetBlurredAlpha"></feMergeNode>
		<feMergeNode  in="SourceGraphic"></feMergeNode>
	</feMerge>
</filter>
<rect x="244.9" y="137.9" fill="none" width="686.406" height="634.143"/>
<text transform="matrix(1 0 0 1 244.9 335.8741)" display="none" fill="#FBB04C" font-family="'Calibri'" font-size="292">BMI</text>
<circle fill="#231F20" stroke="#FBB04C" stroke-width="29" stroke-miterlimit="10" cx="414.5" cy="414.5" r="400"/>
<g filter="url(#AI_Shadow_2)">
	<path fill="#FBB04C" d="M304.139,460.775c0,6.709-0.853,12.896-2.557,18.559c-1.706,5.665-4.098,10.751-7.176,15.259
		c-3.08,4.511-6.792,8.47-11.135,11.878c-4.346,3.41-9.238,6.269-14.682,8.578c-5.444,2.31-11.274,4.042-17.486,5.196
		c-6.214,1.155-13.336,1.732-21.363,1.732h-55.758c-2.531,0-4.923-0.851-7.176-2.557c-2.255-1.704-3.382-4.701-3.382-8.991V320.06
		c0-4.289,1.127-7.284,3.382-8.991c2.253-1.704,4.645-2.557,7.176-2.557h48.5c12.757,0,23.204,1.211,31.343,3.629
		c8.138,2.42,14.929,5.939,20.373,10.558c5.444,4.619,9.54,10.284,12.29,16.991c2.748,6.709,4.124,14.298,4.124,22.765
		c0,5.06-0.606,9.898-1.815,14.517c-1.211,4.619-2.998,8.882-5.361,12.785c-2.366,3.905-5.335,7.397-8.908,10.475
		c-3.575,3.08-7.671,5.609-12.29,7.588c5.828,1.101,11.272,3.108,16.332,6.021c5.057,2.915,9.485,6.627,13.28,11.135
		c3.794,4.511,6.79,9.789,8.991,15.837C303.038,446.864,304.139,453.517,304.139,460.775z M261.413,365.26
		c0-5.168-0.714-9.841-2.139-14.022c-1.428-4.178-3.676-7.725-6.748-10.64c-3.072-2.913-7.078-5.14-12.014-6.681
		c-4.939-1.539-11.465-2.31-19.585-2.31h-29.294v69.12h32.256c7.351,0,13.275-0.962,17.775-2.887
		c4.498-1.923,8.228-4.508,11.192-7.753c2.962-3.243,5.13-7.037,6.501-11.383C260.727,374.362,261.413,369.879,261.413,365.26z
		 M274.28,462.425c0-6.377-1.016-11.986-3.047-16.826c-2.031-4.838-4.992-8.908-8.89-12.207c-3.897-3.299-8.782-5.8-14.654-7.506
		c-5.872-1.704-13.254-2.557-22.141-2.557h-33.916v75.224h41.159c6.475,0,12.128-0.768,16.958-2.31
		c4.827-1.539,9.08-3.82,12.759-6.846c3.676-3.024,6.557-6.79,8.643-11.3C273.236,473.588,274.28,468.364,274.28,462.425z"/>
	<path fill="#FBB04C" d="M579.301,517.688c0,0.881-0.227,1.65-0.68,2.31c-0.454,0.66-1.245,1.183-2.38,1.567
		c-1.134,0.386-2.577,0.714-4.333,0.99c-1.755,0.273-4.05,0.412-6.88,0.412c-2.606,0-4.843-0.139-6.712-0.412
		c-1.869-0.276-3.34-0.603-4.418-0.99c-1.078-0.384-1.841-0.907-2.294-1.567c-0.454-0.66-0.678-1.428-0.678-2.31V331.772h-0.33
		l-75.224,186.741c-0.33,0.771-0.799,1.43-1.402,1.98c-0.606,0.551-1.485,1.018-2.639,1.402c-1.155,0.384-2.531,0.66-4.124,0.825
		c-1.595,0.165-3.493,0.247-5.691,0.247c-2.31,0-4.289-0.111-5.939-0.33c-1.65-0.221-3.026-0.523-4.125-0.907
		c-1.1-0.384-1.954-0.851-2.557-1.402c-0.606-0.549-1.018-1.155-1.237-1.815l-71.925-186.741h-0.165v185.916
		c0,0.881-0.227,1.65-0.68,2.31c-0.454,0.66-1.245,1.183-2.38,1.567c-1.134,0.386-2.606,0.714-4.418,0.99
		c-1.812,0.273-4.134,0.412-6.965,0.412c-2.719,0-4.985-0.139-6.797-0.412c-1.812-0.276-3.255-0.603-4.333-0.99
		c-1.077-0.384-1.812-0.907-2.209-1.567c-0.397-0.66-0.593-1.428-0.593-2.31V321.38c0-4.619,1.227-7.918,3.683-9.898
		c2.456-1.98,5.194-2.969,8.209-2.969h17.422c3.573,0,6.699,0.33,9.38,0.99c2.681,0.66,5.024,1.706,7.034,3.134
		c2.011,1.43,3.686,3.245,5.026,5.444c1.341,2.201,2.513,4.784,3.518,7.753l61.038,154.572h0.825l63.512-154.078
		c1.227-3.299,2.567-6.104,4.021-8.413c1.453-2.31,3.046-4.15,4.778-5.526c1.732-1.374,3.657-2.364,5.782-2.969
		c2.121-0.603,4.581-0.907,7.374-0.907h18.268c1.674,0,3.268,0.247,4.776,0.742c1.507,0.495,2.794,1.265,3.856,2.31
		c1.061,1.046,1.928,2.366,2.598,3.959c0.67,1.595,1.006,3.547,1.006,5.856V517.688z"/>
	<path fill="#FBB04C" d="M664.423,517.688c0,0.881-0.221,1.65-0.66,2.31c-0.441,0.66-1.211,1.183-2.31,1.567
		c-1.101,0.386-2.557,0.714-4.372,0.99c-1.815,0.273-4.098,0.412-6.846,0.412c-2.639,0-4.895-0.139-6.764-0.412
		c-1.871-0.276-3.356-0.603-4.454-0.99c-1.101-0.384-1.871-0.907-2.31-1.567c-0.441-0.66-0.66-1.428-0.66-2.31V312.801
		c0-0.879,0.247-1.65,0.742-2.31c0.495-0.66,1.32-1.181,2.474-1.567c1.155-0.384,2.639-0.714,4.454-0.99
		c1.815-0.273,3.985-0.412,6.516-0.412c2.748,0,5.031,0.139,6.846,0.412c1.815,0.276,3.271,0.606,4.372,0.99
		c1.098,0.386,1.869,0.907,2.31,1.567c0.438,0.66,0.66,1.43,0.66,2.31V517.688z"/>
</g>
<g filter="url(#AI_Shadow_2)">
	<rect x="163.5" y="533.5" fill="#FBB04C" width="141" height="13"/>
</g>
<g filter="url(#AI_Shadow_2)">
	<rect x="590.5" y="331.5" fill="#FBB04C" width="34" height="13"/>
</g>
</svg>
