<?xml version="1.0" encoding="utf-8"?>
<!-- Generator: Adobe Illustrator 19.0.0, SVG Export Plug-In . SVG Version: 6.00 Build 0)  -->
<svg version="1.1" id="Layer_1" xmlns="http://www.w3.org/2000/svg" xmlns:xlink="http://www.w3.org/1999/xlink" x="0px" y="0px"
	 viewBox="0 0 830 830" style="enable-background:new 0 0 830 830;" xml:space="preserve">
<style type="text/css">
	.st0{fill:#221F1F;stroke:#231F20;stroke-miterlimit:10;}
	.st1{fill:none;stroke:#00CA94;stroke-width:30;stroke-miterlimit:10;}
	.st2{filter:url(#AI_Shadow_2);}
	.st3{fill:#00CA94;}
	.st4{fill:#7F7F7F;}
	.st5{fill:#F05A28;}
	.st6{fill:#231F20;}
</style>
<filter  height="130%" width="140%" y="-15%" x="-15%" filterUnits="objectBoundingBox" id="AI_Shadow_2">
	<feGaussianBlur  in="SourceAlpha" stdDeviation="6" result="blur"></feGaussianBlur>
	<feOffset  dy="8" dx="8" in="blur" result="offsetBlurredAlpha"></feOffset>
	<feMerge>
		<feMergeNode  in="offsetBlurredAlpha"></feMergeNode>
		<feMergeNode  in="SourceGraphic"></feMergeNode>
	</feMerge>
</filter>
<path id="XMLID_67_" class="st0" d="M815,415c0,220.9-179.1,400-400,400S15,635.9,15,415S194.1,15,415,15S815,194.1,815,415"/>
<circle id="XMLID_66_" class="st1" cx="415" cy="415" r="400"/>
<g id="XMLID_64_" class="st2">
	<polygon id="XMLID_20_" class="st3" points="505.3,207.8 505.3,405.2 649.9,405.2 649.9,229.1 628.6,207.8 	"/>
</g>
<g id="XMLID_55_" class="st2">
	<polygon id="XMLID_20_" class="st3" points="344.7,487.4 344.7,684.8 489.3,684.8 489.3,508.7 468,487.4 	"/>
</g>
<g id="XMLID_34_" class="st2">
	<polygon id="XMLID_20_" class="st3" points="188,204.8 188,402.2 332.6,402.2 332.6,226.1 311.3,204.8 	"/>
</g>
<g id="drawing">
</g>
<polygon id="XMLID_29_" class="st4" points="338.6,583.5 328,564.1 319.4,593.2 "/>
<polygon id="XMLID_28_" class="st4" points="337.7,286.8 357.1,297.5 348.7,268.4 "/>
<polygon id="XMLID_26_" class="st4" points="585.2,411 570.7,427.8 601,425.6 "/>
<path id="XMLID_22_" class="st4" d="M592.1,425.3h-12c0.4,4.5,0.6,9.1,0.6,13.8c0,61-33.7,114.2-83.5,142v13.6
	c56.6-28.9,95.5-87.8,95.5-155.7C592.7,434.4,592.5,429.8,592.1,425.3z"/>
<path id="XMLID_13_" class="st4" d="M418,264.4c-23.6,0-46.1,4.7-66.6,13.2v13.1c20.3-9.2,42.9-14.3,66.6-14.3
	c29.2,0,56.6,7.7,80.4,21.3V284C474.3,271.5,447,264.4,418,264.4z"/>
<g id="XMLID_2_">
	<path id="XMLID_6_" class="st4" d="M328,574.5c-43.8-29.2-72.7-79-72.7-135.4c0-10.7,1.1-21.2,3-31.3h-12.2
		c-1.8,10.2-2.8,20.6-2.8,31.3c0,63.4,34,119.1,84.7,149.7V574.5z"/>
	<path id="XMLID_3_" class="st5" d="M454.4,597.6v12.3c0.1,0,0.1,0,0.2,0v-12.3C454.5,597.6,454.4,597.6,454.4,597.6z"/>
</g>
<path id="XMLID_17_" d="M365.4,560.1c0-3.9,2.6-6.6,6.3-6.6c3.7,0,6.2,2.7,6.2,6.6c0,3.8-2.4,6.6-6.3,6.6
	C367.9,566.7,365.4,563.9,365.4,560.1"/>
<path id="XMLID_16_" d="M387.1,560.1c0-3.9,2.6-6.6,6.3-6.6c3.7,0,6.2,2.7,6.2,6.6c0,3.8-2.4,6.6-6.3,6.6
	C389.6,566.7,387.1,563.9,387.1,560.1"/>
<path id="XMLID_15_" d="M408.8,560.1c0-3.9,2.6-6.6,6.3-6.6c3.7,0,6.2,2.7,6.2,6.6c0,3.8-2.4,6.6-6.3,6.6
	C411.3,566.7,408.8,563.9,408.8,560.1"/>
<path id="XMLID_14_" d="M430.5,560.1c0-3.9,2.6-6.6,6.3-6.6c3.7,0,6.2,2.7,6.2,6.6c0,3.8-2.4,6.6-6.3,6.6
	C433,566.7,430.5,563.9,430.5,560.1"/>
<path id="XMLID_12_" d="M452.1,560.1c0-3.9,2.6-6.6,6.3-6.6c3.7,0,6.2,2.7,6.2,6.6c0,3.8-2.4,6.6-6.3,6.6
	C454.7,566.7,452.1,563.9,452.1,560.1"/>
<path id="XMLID_11_" d="M365.4,590.7c0-3.9,2.6-6.6,6.3-6.6c3.7,0,6.2,2.7,6.2,6.6c0,3.8-2.4,6.6-6.3,6.6
	C367.9,597.3,365.4,594.5,365.4,590.7"/>
<path id="XMLID_10_" d="M387.1,590.7c0-3.9,2.6-6.6,6.3-6.6c3.7,0,6.2,2.7,6.2,6.6c0,3.8-2.4,6.6-6.3,6.6
	C389.6,597.3,387.1,594.5,387.1,590.7"/>
<path id="XMLID_9_" d="M408.8,590.7c0-3.9,2.6-6.6,6.3-6.6c3.7,0,6.2,2.7,6.2,6.6c0,3.8-2.4,6.6-6.3,6.6
	C411.3,597.3,408.8,594.5,408.8,590.7"/>
<path id="XMLID_8_" d="M365.4,621.3c0-3.9,2.6-6.6,6.3-6.6c3.7,0,6.2,2.7,6.2,6.6c0,3.8-2.4,6.6-6.3,6.6
	C367.9,627.9,365.4,625,365.4,621.3"/>
<path id="XMLID_7_" d="M387.1,621.3c0-3.9,2.6-6.6,6.3-6.6c3.7,0,6.2,2.7,6.2,6.6c0,3.8-2.4,6.6-6.3,6.6
	C389.6,627.9,387.1,625,387.1,621.3"/>
<path id="XMLID_5_" d="M408.8,621.3c0-3.9,2.6-6.6,6.3-6.6c3.7,0,6.2,2.7,6.2,6.6c0,3.8-2.4,6.6-6.3,6.6
	C411.3,627.9,408.8,625,408.8,621.3"/>
<path id="XMLID_4_" d="M430.5,621.3c0-3.9,2.6-6.6,6.3-6.6c3.7,0,6.2,2.7,6.2,6.6c0,3.8-2.4,6.6-6.3,6.6
	C433,627.9,430.5,625,430.5,621.3"/>
<rect id="XMLID_1_" x="203" y="271" class="st6" width="31.2" height="7.7"/>
<rect id="XMLID_31_" x="243.8" y="271" width="31.2" height="7.7"/>
<rect id="XMLID_32_" x="285.7" y="271" width="31.2" height="7.7"/>
<rect id="XMLID_36_" x="203" y="288" width="31.2" height="7.7"/>
<rect id="XMLID_35_" x="243.8" y="288" width="31.2" height="7.7"/>
<rect id="XMLID_33_" x="285.7" y="288" width="31.2" height="7.7"/>
<rect id="XMLID_39_" x="203" y="306" width="31.2" height="7.7"/>
<rect id="XMLID_37_" x="243.8" y="306" width="31.2" height="7.7"/>
<rect id="XMLID_30_" x="285.7" y="306" width="31.2" height="7.7"/>
<rect id="XMLID_77_" x="203" y="324" width="31.2" height="7.7"/>
<rect id="XMLID_72_" x="243.8" y="324" width="31.2" height="7.7"/>
<rect id="XMLID_71_" x="285.7" y="324" width="31.2" height="7.7"/>
<rect id="XMLID_47_" x="203" y="341" width="31.2" height="7.7"/>
<rect id="XMLID_46_" x="243.8" y="341" width="31.2" height="7.7"/>
<rect id="XMLID_45_" x="285.7" y="341" width="31.2" height="7.7"/>
<path id="XMLID_42_" class="st6" d="M623,318.5c-7.2-7.5-26.9-4.4-31.6-3.9c-6.9-6.6-11.6-14.7-13.3-17.4c2.5-7.5,4.2-15,4.4-23
	c0-6.9-2.8-14.4-10.5-14.4c-2.8,0-5.3,1.7-6.6,3.9c-3.3,5.8-1.9,17.4,3.3,29.3c-3,8.6-5.8,16.9-13.6,31.6
	c-8,3.3-24.9,11.1-26.3,19.4c-0.6,2.5,0.3,5,2.2,6.9c1.9,1.7,4.4,2.5,6.9,2.5c10.2,0,20.2-14.1,27.1-26c5.8-1.9,15-4.7,24.1-6.4
	c10.8,9.4,20.2,10.8,25.2,10.8c6.6,0,9.1-2.8,10-5.3C625.8,323.8,624.9,320.7,623,318.5L623,318.5z M616.1,323.2
	c-0.3,1.9-2.8,3.9-7.2,2.8c-5.3-1.4-10-3.9-14.1-7.2c3.6-0.6,11.6-1.4,17.4-0.3C614.4,319.1,616.6,320.4,616.1,323.2L616.1,323.2z
	 M569.8,266.2c0.6-0.8,1.4-1.4,2.2-1.4c2.5,0,3,3,3,5.5c-0.3,5.8-1.4,11.6-3.3,17.2C567.6,276.4,568.5,268.7,569.8,266.2z
	 M569.3,319.9c2.2-4.4,5.3-12.2,6.4-15.5c2.5,4.2,6.6,9.1,8.9,11.4C584.5,316,575.9,317.7,569.3,319.9z M553,331
	c-6.4,10.5-13,17.2-16.6,17.2c-0.6,0-1.1-0.3-1.7-0.6c-0.8-0.6-1.1-1.4-0.8-2.5C534.7,341.2,541.9,335.9,553,331L553,331z"/>
</svg>
